<svg xmlns="http://www.w3.org/2000/svg" xmlns:xlink="http://www.w3.org/1999/xlink" xmlns:serif="http://www.serif.com/" width="100%" height="100%" viewBox="0 0 857 195" xml:space="preserve" style="fill-rule:evenodd;clip-rule:evenodd;stroke-linejoin:round;stroke-miterlimit:2;">
    <g transform="matrix(1,0,0,1,-511.813,-136.506)">
        <g transform="matrix(8.33333,0,0,8.33333,0,0)">
            <g transform="matrix(1,0,0,1,64.9686,29.1478)">
                <path d="M0,0.094C1.027,0.094 1.766,0.901 1.766,1.973C1.766,3.074 0.979,3.806 -0.007,3.806C-1.014,3.806 -1.726,3.06 -1.726,1.973C-1.726,0.826 -0.966,0.094 0,0.094M-0.336,5.459C0.557,5.459 1.249,5.186 1.719,4.523L1.763,4.523L1.763,5.518L3.421,5.518L3.421,-5.424L1.43,-5.424L1.43,-0.69C0.948,-1.188 0.323,-1.424 -0.389,-1.424C-2.189,-1.424 -3.551,-0.024 -3.551,2.019C-3.551,4.091 -2.195,5.459 -0.336,5.459" style="fill:rgb(230,0,0);fill-rule:nonzero;"></path>
            </g>
            <g transform="matrix(1,0,0,1,76.8427,29.0653)">
                <path d="M0,4.058C-0.731,4.058 -1.308,3.79 -1.86,3.271L-2.732,4.514C-2,5.158 -1.089,5.499 -0.014,5.499C1.745,5.499 2.592,4.6 2.592,3.413C2.592,2.091 1.739,1.772 0.283,1.236C-0.375,0.989 -0.724,0.796 -0.724,0.511C-0.724,0.164 -0.362,0.008 -0.067,0.008C0.43,0.008 1.02,0.229 1.539,0.72L2.411,-0.596C1.646,-1.187 0.885,-1.441 -0.047,-1.441C-1.416,-1.441 -2.464,-0.642 -2.464,0.573C-2.464,1.868 -1.503,2.393 -0.397,2.756C0.477,3.037 0.826,3.19 0.826,3.499C0.826,3.829 0.524,4.058 0,4.058" style="fill:rgb(230,0,0);fill-rule:nonzero;"></path>
            </g>
            <g transform="matrix(1,0,0,1,83.289,27.625)">
                <path d="M0,6.939C1.349,6.939 2.388,6.402 2.966,5.732L1.731,4.645C1.417,5.001 0.884,5.323 0.173,5.323C-0.894,5.323 -1.627,4.565 -1.627,3.461C-1.627,2.374 -0.914,1.617 0.16,1.617C0.838,1.617 1.362,1.914 1.725,2.336L2.94,1.288C2.261,0.435 1.153,0 0.085,0C-1.996,0 -3.452,1.413 -3.452,3.475C-3.452,5.537 -1.989,6.939 0,6.939" style="fill:rgb(230,0,0);fill-rule:nonzero;"></path>
            </g>
            <g transform="matrix(1,0,0,1,88.6145,27.3391)">
                <path d="M0,3.71C0,2.507 0.663,1.903 1.623,1.903C2.483,1.903 2.984,2.306 2.984,3.534L2.984,7.326L4.643,7.326L4.643,3.076C4.643,1.028 3.709,0.359 2.259,0.359C1.406,0.359 0.721,0.696 0.171,1.359L0,1.359L0,-3.616L-1.657,-3.616L-1.657,7.326L0,7.326L0,3.71Z" style="fill:rgb(230,0,0);fill-rule:nonzero;"></path>
            </g>
            <g transform="matrix(1,0,0,1,97.6773,32.9468)">
                <path d="M0,-3.705C0.992,-3.705 1.743,-2.948 1.743,-1.846C1.743,-0.757 0.972,0.007 0,0.007C-1.027,0.007 -1.752,-0.804 -1.752,-1.846C-1.752,-2.908 -1.047,-3.705 0,-3.705M0,1.617C2.087,1.617 3.57,0.209 3.57,-1.846C3.57,-3.909 2.087,-5.322 0,-5.322C-2.137,-5.322 -3.574,-3.853 -3.574,-1.846C-3.574,0.154 -2.137,1.617 0,1.617" style="fill:rgb(230,0,0);fill-rule:nonzero;"></path>
            </g>
            <g transform="matrix(1,0,0,1,0,-1620.61)">
                <rect x="109.835" y="1644.33" width="1.658" height="10.942" style="fill:rgb(230,0,0);"></rect>
            </g>
            <g transform="matrix(1,0,0,1,105.349,32.9468)">
                <path d="M0,-3.705C0.993,-3.705 1.745,-2.948 1.745,-1.846C1.745,-0.757 0.973,0.007 0,0.007C-1.027,0.007 -1.753,-0.804 -1.753,-1.846C-1.753,-2.908 -1.049,-3.705 0,-3.705M0,1.617C2.087,1.617 3.57,0.209 3.57,-1.846C3.57,-3.909 2.087,-5.322 0,-5.322C-2.136,-5.322 -3.572,-3.853 -3.572,-1.846C-3.572,0.154 -2.136,1.617 0,1.617" style="fill:rgb(230,0,0);fill-rule:nonzero;"></path>
            </g>
            <g transform="matrix(1,0,0,1,0,-1601.18)">
                <rect x="61.426" y="1639.24" width="50.066" height="1.696" style="fill:rgb(230,0,0);"></rect>
            </g>
            <g transform="matrix(1,0,0,1,0,-1618.3)">
                <rect x="69.26" y="1647.81" width="4.164" height="1.685" style="fill:rgb(212,29,24);"></rect>
            </g>
            <g transform="matrix(1,0,0,1,0,-1618.3)">
                <rect x="69.26" y="1647.81" width="4.164" height="1.685" style="fill:rgb(0,136,144);"></rect>
            </g>
            <g transform="matrix(1,0,0,1,119.008,28.9357)">
                <path d="M0,2.411L3.628,2.411L1.82,-1.985L0,2.411ZM-1.241,5.389L-2.234,5.389L1.406,-2.978L2.234,-2.978L5.874,5.389L4.881,5.389L3.959,3.191L-0.319,3.191L-1.241,5.389Z" style="fill:rgb(0,136,144);fill-rule:nonzero;"></path>
            </g>
            <g transform="matrix(1,0,0,1,128.143,25.9576)">
                <path d="M0,8.367L-0.851,8.367L-0.851,0L4.195,0L4.195,0.78L0,0.78L0,3.628L3.9,3.628L3.9,4.408L0,4.408L0,8.367Z" style="fill:rgb(0,136,144);fill-rule:nonzero;"></path>
            </g>
            <g transform="matrix(1,0,0,1,135.754,30.6257)">
                <path d="M0,-0.969L1.513,-0.969C1.891,-0.969 2.212,-1.008 2.476,-1.087C2.74,-1.166 2.95,-1.27 3.108,-1.4C3.266,-1.53 3.38,-1.684 3.451,-1.861C3.522,-2.039 3.557,-2.23 3.557,-2.435C3.557,-2.631 3.522,-2.819 3.451,-2.996C3.38,-3.173 3.266,-3.329 3.108,-3.463C2.95,-3.597 2.74,-3.701 2.476,-3.776C2.212,-3.851 1.891,-3.888 1.513,-3.888L0,-3.888L0,-0.969ZM0,3.699L-0.851,3.699L-0.851,-4.668L1.725,-4.668C2.576,-4.668 3.248,-4.483 3.74,-4.113C4.233,-3.742 4.479,-3.183 4.479,-2.435C4.479,-1.851 4.296,-1.361 3.93,-0.963C3.563,-0.565 3.033,-0.335 2.34,-0.272L4.751,3.699L3.711,3.699L1.418,-0.189L0,-0.189L0,3.699Z" style="fill:rgb(0,136,144);fill-rule:nonzero;"></path>
            </g>
            <g transform="matrix(-1,0,0,1,288.171,-1618.72)">
                <rect x="143.66" y="1644.67" width="0.851" height="8.367" style="fill:rgb(0,136,144);"></rect>
            </g>
            <g transform="matrix(1,0,0,1,149.38,30.6968)">
                <path d="M0,-1.111L0.118,-1.111L4.054,-4.739L5.271,-4.739L1.052,-0.946L5.507,3.628L4.255,3.628L0.142,-0.686L0,-0.686L0,3.628L-0.851,3.628L-0.851,-4.739L0,-4.739L0,-1.111Z" style="fill:rgb(0,136,144);fill-rule:nonzero;"></path>
            </g>
            <g transform="matrix(1,0,0,1,158.35,28.9357)">
                <path d="M0,2.411L3.628,2.411L1.82,-1.985L0,2.411ZM-1.241,5.389L-2.234,5.389L1.406,-2.978L2.234,-2.978L5.874,5.389L4.881,5.389L3.959,3.191L-0.319,3.191L-1.241,5.389Z" style="fill:rgb(0,136,144);fill-rule:nonzero;"></path>
            </g>
            <g transform="matrix(1,0,0,1,156.641,25.2301)">
                <path d="M0,0.262L-0.497,0.262C-0.566,0.262 -0.623,0.205 -0.623,0.136L-0.623,0.126C-0.623,0.057 -0.566,0 -0.497,0L0,0C0.069,0 0.126,0.057 0.126,0.126L0.126,0.136C0.126,0.205 0.069,0.262 0,0.262" style="fill:white;fill-rule:nonzero;"></path>
            </g>
            <g transform="matrix(-1,0,0,1,312.418,-1628.36)">
                <rect x="155.671" y="1653.55" width="1.076" height="0.257" style="fill:rgb(230,0,0);"></rect>
            </g>
            <g transform="matrix(-0.623674,0.781684,0.781684,0.623674,156.008,25.4488)">
                <rect x="-0.974" y="-0.468" width="1.076" height="0.257" style="fill:rgb(230,0,0);"></rect>
            </g>
            <g transform="matrix(0.222143,0.975014,0.975014,-0.222143,156.101,24.6676)">
                <rect x="-0.544" y="-0.682" width="1.076" height="0.257" style="fill:rgb(230,0,0);"></rect>
            </g>
            <g transform="matrix(0.90084,0.434151,0.434151,-0.90084,154.957,24.5687)">
                <rect x="-0.109" y="-0.478" width="1.075" height="0.258" style="fill:rgb(230,0,0);"></rect>
            </g>
            <g transform="matrix(0.90084,-0.434151,-0.434151,-0.90084,154.748,25.8764)">
                <rect x="0.003" y="-0.011" width="1.076" height="0.258" style="fill:rgb(230,0,0);"></rect>
            </g>
            <g transform="matrix(0.222143,-0.975014,-0.975014,-0.222143,155.972,26.1821)">
                <rect x="-0.293" y="0.367" width="1.075" height="0.258" style="fill:rgb(230,0,0);"></rect>
            </g>
            <g transform="matrix(-0.623674,-0.781684,-0.781684,0.623674,156.244,25.2416)">
                <rect x="-0.773" y="0.371" width="1.075" height="0.258" style="fill:rgb(230,0,0);"></rect>
            </g>
            <g transform="matrix(1,0,0,1,61.8047,19.942)">
                <path d="M0,-3.473L0.618,-3.473L0.618,-2.09L2.242,-2.09L2.242,-3.473L2.86,-3.473L2.86,0L2.242,0L2.242,-1.53L0.618,-1.53L0.618,0L0,0L0,-3.473Z" style="fill:rgb(230,0,0);fill-rule:nonzero;"></path>
            </g>
            <g transform="matrix(1,0,0,1,67.9364,17.7926)">
                <path d="M0,0.825L-0.535,-0.588L-1.079,0.825L0,0.825ZM-0.785,-1.324L-0.25,-1.324L1.246,2.149L0.54,2.149L0.216,1.355L-1.29,1.355L-1.604,2.149L-2.296,2.149L-0.785,-1.324Z" style="fill:rgb(230,0,0);fill-rule:nonzero;"></path>
            </g>
            <g transform="matrix(1,0,0,1,71.8605,19.1967)">
                <path d="M0,-1.982C-0.066,-2.077 -0.153,-2.146 -0.262,-2.19C-0.372,-2.235 -0.487,-2.257 -0.608,-2.257C-0.68,-2.257 -0.75,-2.248 -0.817,-2.232C-0.884,-2.216 -0.944,-2.19 -0.998,-2.154C-1.052,-2.118 -1.096,-2.071 -1.128,-2.014C-1.161,-1.957 -1.177,-1.889 -1.177,-1.81C-1.177,-1.693 -1.136,-1.603 -1.055,-1.54C-0.973,-1.478 -0.872,-1.424 -0.751,-1.379C-0.629,-1.333 -0.497,-1.289 -0.353,-1.246C-0.209,-1.204 -0.077,-1.145 0.044,-1.07C0.165,-0.994 0.267,-0.895 0.348,-0.77C0.43,-0.646 0.471,-0.481 0.471,-0.275C0.471,-0.089 0.437,0.074 0.368,0.213C0.299,0.352 0.207,0.467 0.091,0.559C-0.025,0.65 -0.16,0.719 -0.314,0.765C-0.468,0.811 -0.629,0.834 -0.8,0.834C-1.015,0.834 -1.223,0.797 -1.423,0.726C-1.622,0.654 -1.794,0.533 -1.938,0.363L-1.472,-0.089C-1.396,0.026 -1.297,0.115 -1.175,0.179C-1.052,0.242 -0.922,0.274 -0.785,0.274C-0.713,0.274 -0.641,0.265 -0.569,0.245C-0.497,0.225 -0.432,0.196 -0.373,0.157C-0.314,0.117 -0.267,0.068 -0.231,0.007C-0.195,-0.053 -0.177,-0.123 -0.177,-0.201C-0.177,-0.329 -0.218,-0.427 -0.299,-0.496C-0.381,-0.564 -0.482,-0.622 -0.603,-0.67C-0.724,-0.717 -0.857,-0.762 -1.001,-0.805C-1.145,-0.847 -1.277,-0.905 -1.398,-0.979C-1.519,-1.052 -1.621,-1.151 -1.702,-1.273C-1.784,-1.396 -1.825,-1.56 -1.825,-1.766C-1.825,-1.946 -1.788,-2.101 -1.714,-2.232C-1.641,-2.363 -1.544,-2.472 -1.425,-2.558C-1.306,-2.645 -1.169,-2.71 -1.015,-2.752C-0.862,-2.795 -0.705,-2.816 -0.545,-2.816C-0.361,-2.816 -0.184,-2.788 -0.012,-2.732C0.159,-2.677 0.314,-2.585 0.451,-2.458L0,-1.982Z" style="fill:rgb(230,0,0);fill-rule:nonzero;"></path>
            </g>
            <g transform="matrix(1,0,0,1,75.2647,19.1967)">
                <path d="M0,-1.982C-0.066,-2.077 -0.153,-2.146 -0.262,-2.19C-0.372,-2.235 -0.487,-2.257 -0.608,-2.257C-0.68,-2.257 -0.75,-2.248 -0.817,-2.232C-0.884,-2.216 -0.944,-2.19 -0.998,-2.154C-1.052,-2.118 -1.096,-2.071 -1.128,-2.014C-1.161,-1.957 -1.177,-1.889 -1.177,-1.81C-1.177,-1.693 -1.136,-1.603 -1.055,-1.54C-0.973,-1.478 -0.872,-1.424 -0.751,-1.379C-0.629,-1.333 -0.497,-1.289 -0.353,-1.246C-0.209,-1.204 -0.077,-1.145 0.044,-1.07C0.165,-0.994 0.267,-0.895 0.348,-0.77C0.43,-0.646 0.471,-0.481 0.471,-0.275C0.471,-0.089 0.437,0.074 0.368,0.213C0.299,0.352 0.207,0.467 0.091,0.559C-0.025,0.65 -0.16,0.719 -0.314,0.765C-0.468,0.811 -0.629,0.834 -0.8,0.834C-1.015,0.834 -1.223,0.797 -1.423,0.726C-1.622,0.654 -1.794,0.533 -1.938,0.363L-1.471,-0.089C-1.396,0.026 -1.297,0.115 -1.175,0.179C-1.052,0.242 -0.922,0.274 -0.785,0.274C-0.713,0.274 -0.641,0.265 -0.569,0.245C-0.497,0.225 -0.432,0.196 -0.373,0.157C-0.314,0.117 -0.267,0.068 -0.231,0.007C-0.195,-0.053 -0.177,-0.123 -0.177,-0.201C-0.177,-0.329 -0.218,-0.427 -0.299,-0.496C-0.381,-0.564 -0.482,-0.622 -0.603,-0.67C-0.724,-0.717 -0.857,-0.762 -1.001,-0.805C-1.145,-0.847 -1.277,-0.905 -1.398,-0.979C-1.519,-1.052 -1.62,-1.151 -1.702,-1.273C-1.784,-1.396 -1.825,-1.56 -1.825,-1.766C-1.825,-1.946 -1.788,-2.101 -1.714,-2.232C-1.641,-2.363 -1.544,-2.472 -1.425,-2.558C-1.306,-2.645 -1.169,-2.71 -1.015,-2.752C-0.862,-2.795 -0.705,-2.816 -0.545,-2.816C-0.361,-2.816 -0.184,-2.788 -0.012,-2.732C0.159,-2.677 0.314,-2.585 0.451,-2.458L0,-1.982Z" style="fill:rgb(230,0,0);fill-rule:nonzero;"></path>
            </g>
            <g transform="matrix(1,0,0,1,77.428,18.2269)">
                <path d="M0,-0.046C0,0.141 0.029,0.312 0.086,0.469C0.143,0.626 0.224,0.762 0.329,0.876C0.433,0.991 0.558,1.081 0.704,1.146C0.849,1.212 1.012,1.244 1.192,1.244C1.372,1.244 1.535,1.212 1.682,1.146C1.83,1.081 1.955,0.991 2.06,0.876C2.165,0.762 2.246,0.626 2.303,0.469C2.36,0.312 2.389,0.141 2.389,-0.046C2.389,-0.219 2.36,-0.381 2.303,-0.531C2.246,-0.682 2.165,-0.814 2.06,-0.926C1.955,-1.039 1.83,-1.127 1.682,-1.191C1.535,-1.255 1.372,-1.287 1.192,-1.287C1.012,-1.287 0.849,-1.255 0.704,-1.191C0.558,-1.127 0.433,-1.039 0.329,-0.926C0.224,-0.814 0.143,-0.682 0.086,-0.531C0.029,-0.381 0,-0.219 0,-0.046M-0.647,-0.007C-0.647,-0.285 -0.602,-0.537 -0.51,-0.765C-0.419,-0.992 -0.292,-1.185 -0.13,-1.346C0.032,-1.506 0.225,-1.629 0.449,-1.716C0.673,-1.803 0.919,-1.846 1.187,-1.846C1.458,-1.849 1.707,-1.809 1.933,-1.726C2.158,-1.643 2.353,-1.521 2.516,-1.361C2.68,-1.2 2.807,-1.007 2.899,-0.782C2.991,-0.556 3.036,-0.304 3.036,-0.026C3.036,0.245 2.991,0.492 2.899,0.714C2.807,0.937 2.68,1.128 2.516,1.288C2.353,1.449 2.158,1.574 1.933,1.664C1.707,1.753 1.458,1.8 1.187,1.803C0.919,1.803 0.673,1.76 0.449,1.673C0.225,1.587 0.032,1.464 -0.13,1.306C-0.292,1.147 -0.419,0.956 -0.51,0.734C-0.602,0.512 -0.647,0.265 -0.647,-0.007" style="fill:rgb(230,0,0);fill-rule:nonzero;"></path>
            </g>
            <g transform="matrix(1,0,0,1,84.6728,18.4361)">
                <path d="M0,-0.461C0.088,-0.461 0.18,-0.464 0.275,-0.471C0.369,-0.477 0.457,-0.497 0.537,-0.53C0.617,-0.562 0.683,-0.611 0.733,-0.677C0.784,-0.742 0.809,-0.834 0.809,-0.952C0.809,-1.06 0.786,-1.145 0.741,-1.209C0.695,-1.273 0.636,-1.322 0.564,-1.356C0.492,-1.391 0.412,-1.413 0.324,-1.423C0.235,-1.432 0.15,-1.437 0.069,-1.437L-0.373,-1.437L-0.373,-0.461L0,-0.461ZM-0.991,-1.967L0.177,-1.967C0.343,-1.967 0.504,-1.951 0.66,-1.918C0.815,-1.885 0.952,-1.831 1.069,-1.754C1.187,-1.677 1.281,-1.574 1.351,-1.445C1.422,-1.315 1.457,-1.154 1.457,-0.961C1.457,-0.742 1.419,-0.566 1.344,-0.432C1.269,-0.298 1.167,-0.194 1.04,-0.12C0.912,-0.047 0.764,0.003 0.596,0.029C0.427,0.056 0.252,0.069 0.069,0.069L-0.373,0.069L-0.373,1.506L-0.991,1.506L-0.991,-1.967Z" style="fill:rgb(230,0,0);fill-rule:nonzero;"></path>
            </g>
            <g transform="matrix(1,0,0,1,87.2676,19.942)">
                <path d="M0,-3.473L0.618,-3.473L0.618,-0.559L2.095,-0.559L2.095,0L0,0L0,-3.473Z" style="fill:rgb(230,0,0);fill-rule:nonzero;"></path>
            </g>
            <g transform="matrix(1,0,0,1,92.3103,17.7926)">
                <path d="M0,0.825L-0.535,-0.588L-1.079,0.825L0,0.825ZM-0.785,-1.324L-0.25,-1.324L1.246,2.149L0.54,2.149L0.216,1.355L-1.29,1.355L-1.604,2.149L-2.296,2.149L-0.785,-1.324Z" style="fill:rgb(230,0,0);fill-rule:nonzero;"></path>
            </g>
            <g transform="matrix(1,0,0,1,94.7923,19.3833)">
                <path d="M0,-2.355L-1.064,-2.355L-1.064,-2.914L1.682,-2.914L1.682,-2.355L0.618,-2.355L0.618,0.559L0,0.559L0,-2.355Z" style="fill:rgb(230,0,0);fill-rule:nonzero;"></path>
            </g>
            <g transform="matrix(1,0,0,1,98.1965,19.3833)">
                <path d="M0,-2.355L-1.064,-2.355L-1.064,-2.914L1.682,-2.914L1.682,-2.355L0.618,-2.355L0.618,0.559L0,0.559L0,-2.355Z" style="fill:rgb(230,0,0);fill-rule:nonzero;"></path>
            </g>
            <g transform="matrix(1,0,0,1,100.889,19.942)">
                <path d="M0,-3.473L0.819,-3.473L2.502,-0.893L2.512,-0.893L2.512,-3.473L3.13,-3.473L3.13,0L2.345,0L0.628,-2.664L0.618,-2.664L0.618,0L0,0L0,-3.473Z" style="fill:rgb(230,0,0);fill-rule:nonzero;"></path>
            </g>
            <g transform="matrix(1,0,0,1,105.382,19.942)">
                <path d="M0,-3.473L2.301,-3.473L2.301,-2.914L0.618,-2.914L0.618,-2.06L2.212,-2.06L2.212,-1.501L0.618,-1.501L0.618,-0.559L2.389,-0.559L2.389,0L0,0L0,-3.473Z" style="fill:rgb(230,0,0);fill-rule:nonzero;"></path>
            </g>
            <g transform="matrix(1,0,0,1,110.067,18.4697)">
                <path d="M0,-0.529C0.088,-0.529 0.177,-0.533 0.265,-0.541C0.353,-0.55 0.434,-0.569 0.508,-0.6C0.581,-0.631 0.641,-0.679 0.687,-0.742C0.733,-0.806 0.755,-0.895 0.755,-1.01C0.755,-1.111 0.734,-1.193 0.692,-1.255C0.649,-1.317 0.594,-1.364 0.525,-1.395C0.456,-1.426 0.38,-1.446 0.297,-1.456C0.213,-1.466 0.132,-1.471 0.054,-1.471L-0.481,-1.471L-0.481,-0.529L0,-0.529ZM-1.099,-2.001L0.108,-2.001C0.275,-2.001 0.436,-1.985 0.591,-1.954C0.746,-1.923 0.885,-1.87 1.006,-1.795C1.127,-1.719 1.223,-1.618 1.295,-1.49C1.367,-1.363 1.403,-1.201 1.403,-1.005C1.403,-0.753 1.333,-0.542 1.195,-0.372C1.055,-0.202 0.857,-0.099 0.599,-0.063L1.521,1.472L0.775,1.472L-0.029,0.001L-0.481,0.001L-0.481,1.472L-1.099,1.472L-1.099,-2.001Z" style="fill:rgb(230,0,0);fill-rule:nonzero;"></path>
            </g>
        </g>
    </g>
</svg>